<svg width="18" height="19" viewBox="0 0 18 19" fill="none" xmlns="http://www.w3.org/2000/svg">
<path d="M14.1172 12.1511C13.0444 12.1511 12.0912 12.6724 11.4973 13.4749L6.38357 10.8616C6.46936 10.5701 6.51562 10.2619 6.51562 9.943C6.51562 9.51112 6.43096 9.09872 6.27766 8.72121L11.6371 5.50111C12.2351 6.20299 13.125 6.64899 14.1172 6.64899C15.9135 6.64899 17.375 5.18753 17.375 3.39117C17.375 1.59482 15.9135 0.133362 14.1172 0.133362C12.3208 0.133362 10.8594 1.59482 10.8594 3.39117C10.8594 3.80636 10.9376 4.20356 11.0798 4.56905L5.70696 7.79718C5.10941 7.11601 4.23302 6.68518 3.25781 6.68518C1.46145 6.68518 0 8.14664 0 9.943C0 11.7394 1.46145 13.2008 3.25781 13.2008C4.34817 13.2008 5.31501 12.6623 5.90667 11.8374L11.0055 14.4431C10.9106 14.7484 10.8594 15.0727 10.8594 15.4089C10.8594 17.2052 12.3208 18.6667 14.1172 18.6667C15.9135 18.6667 17.375 17.2052 17.375 15.4089C17.375 13.6125 15.9135 12.1511 14.1172 12.1511ZM14.1172 1.2193C15.3148 1.2193 16.2891 2.1936 16.2891 3.39117C16.2891 4.58875 15.3148 5.56305 14.1172 5.56305C12.9196 5.56305 11.9453 4.58875 11.9453 3.39117C11.9453 2.1936 12.9196 1.2193 14.1172 1.2193ZM3.25781 12.1149C2.06024 12.1149 1.08594 11.1406 1.08594 9.943C1.08594 8.74542 2.06024 7.77112 3.25781 7.77112C4.45538 7.77112 5.42969 8.74542 5.42969 9.943C5.42969 11.1406 4.45538 12.1149 3.25781 12.1149ZM14.1172 17.5808C12.9196 17.5808 11.9453 16.6065 11.9453 15.4089C11.9453 14.2113 12.9196 13.237 14.1172 13.237C15.3148 13.237 16.2891 14.2113 16.2891 15.4089C16.2891 16.6065 15.3148 17.5808 14.1172 17.5808Z" fill="#145E94"/>
</svg>
