<svg width="71" height="30" viewBox="0 0 71 30" fill="none" xmlns="http://www.w3.org/2000/svg">
<path d="M45.739 23.1811H43.5922L43.4627 21.7224H41.7658L41.1145 23.1811H40.225L42.9306 17.3568H45.1063L45.739 23.1811ZM42.0698 21.0527H43.3991L43.1874 18.5586L42.0698 21.0527Z" fill="#210C0C"/>
<path d="M51.5078 18.0532H50.0307L48.9398 23.1811H46.9593L48.0502 18.0532H46.5916L46.7559 17.3568H51.6639L51.5078 18.0532Z" fill="#210C0C"/>
<path d="M53.6998 20.6685C53.8832 20.6685 54.0373 20.592 54.1621 20.4384C54.2879 20.2854 54.3922 20.0989 54.4744 19.8796C54.5576 19.6593 54.6171 19.4297 54.6531 19.1914C54.6901 18.9531 54.7086 18.7451 54.7086 18.5669C54.7086 18.4025 54.6808 18.2638 54.6264 18.1498C54.5714 18.0363 54.4523 17.9793 54.2689 17.9793H53.856L53.2787 20.6685H53.6998ZM53.1493 21.254L52.7363 23.1811H50.7559L51.9947 17.3568H54.1128C54.462 17.3568 54.7794 17.3753 55.066 17.4123C55.3537 17.4482 55.6012 17.5212 55.8097 17.6321C56.0177 17.742 56.18 17.8992 56.2966 18.1046C56.4127 18.309 56.4713 18.5823 56.4713 18.9243C56.4713 19.2422 56.4204 19.5437 56.3192 19.8283C56.2175 20.1133 56.0552 20.3614 55.8323 20.572C55.6089 20.7831 55.3198 20.9495 54.9654 21.0712C54.6105 21.1934 54.1796 21.254 53.6731 21.254H53.1493Z" fill="#210C0C"/>
<path d="M58.0019 21.3383C57.9782 21.4728 57.9618 21.6007 57.9526 21.7225C57.9428 21.8447 57.9382 21.9546 57.9382 22.0532C57.9382 22.1082 57.9407 22.1693 57.9464 22.2361C57.9531 22.3033 57.9669 22.3665 57.9875 22.4251C58.0091 22.4826 58.0399 22.5314 58.0799 22.5709C58.1195 22.611 58.1765 22.6305 58.2504 22.6305C58.3049 22.6305 58.3675 22.613 58.4374 22.5771C58.5083 22.5401 58.5792 22.4882 58.649 22.421C58.7189 22.3526 58.7856 22.27 58.8503 22.1724C58.9145 22.0738 58.9654 21.9639 59.0024 21.8416H60.5062L60.2679 22.8236C60.1456 22.9032 60.0054 22.9705 59.8467 23.025C59.6875 23.0799 59.5191 23.1246 59.3413 23.1585C59.1647 23.1914 58.9844 23.215 58.801 23.2304C58.6172 23.2468 58.4425 23.2551 58.2772 23.2551C57.9716 23.2551 57.6875 23.2273 57.4246 23.1729C57.1616 23.1169 56.932 23.0219 56.7363 22.8873C56.5401 22.7533 56.3855 22.5745 56.272 22.3511C56.1596 22.1282 56.1036 21.8514 56.1036 21.5211C56.1036 21.2212 56.1508 20.9274 56.2453 20.6398C56.3409 20.3522 56.5001 20.0969 56.722 19.8735C56.9449 19.6506 57.2448 19.4718 57.6218 19.3373C57.9983 19.2032 58.4672 19.1359 59.0291 19.1359C59.6413 19.1359 60.1015 19.2315 60.4096 19.4215C60.7188 19.6105 60.8739 19.9063 60.8739 20.309C60.8739 20.4749 60.8493 20.6542 60.8 20.8473C60.7507 21.0394 60.6772 21.2027 60.5802 21.3383H58.0019ZM59.2222 20.2453C59.2222 20.0563 59.1914 19.9284 59.1297 19.8612C59.0691 19.7944 58.9962 19.7605 58.9099 19.7605C58.8123 19.7605 58.7219 19.7928 58.6387 19.857C58.5566 19.9202 58.4816 20.006 58.4148 20.1138C58.3475 20.2207 58.2864 20.3434 58.232 20.4816C58.177 20.6187 58.1313 20.763 58.0943 20.9151H59.14C59.1523 20.8427 59.1647 20.7666 59.177 20.687C59.1893 20.6187 59.1996 20.5448 59.2078 20.4652C59.2171 20.3861 59.2222 20.3126 59.2222 20.2453Z" fill="#210C0C"/>
<path d="M63.2229 19.8242C63.3503 19.7024 63.4931 19.5895 63.6523 19.4852C63.793 19.3989 63.9584 19.3198 64.1474 19.2469C64.3374 19.1729 64.549 19.1359 64.7822 19.1359C65.0996 19.1359 65.3621 19.2176 65.5691 19.3804C65.7771 19.5422 65.8813 19.7636 65.8813 20.044C65.8813 20.1236 65.8721 20.2202 65.8546 20.3337C65.8367 20.4461 65.8156 20.5638 65.7909 20.687C65.7663 20.8093 65.7401 20.933 65.7129 21.0589C65.6851 21.1837 65.662 21.2946 65.643 21.3917L65.2588 23.1811H63.3955L63.9009 20.7877C63.9132 20.7086 63.9281 20.6274 63.9461 20.5453C63.9651 20.4621 63.9748 20.3866 63.9748 20.3193C63.9748 20.2279 63.9512 20.1529 63.905 20.0954C63.8598 20.0368 63.791 20.007 63.6995 20.007C63.5886 20.007 63.4823 20.0471 63.3811 20.1262C63.281 20.2058 63.2034 20.2731 63.149 20.3275L62.5429 23.1811H60.6713L61.5075 19.2366H63.001L63.1674 19.8242H63.2229Z" fill="#210C0C"/>
<path d="M68.3416 19.8242C68.4689 19.7024 68.6117 19.5895 68.7709 19.4852C68.9117 19.3989 69.0771 19.3198 69.2661 19.2469C69.4561 19.1729 69.6677 19.1359 69.9009 19.1359C70.2183 19.1359 70.4807 19.2176 70.6877 19.3804C70.8957 19.5422 71 19.7636 71 20.044C71 20.1236 70.9907 20.2202 70.9733 20.3337C70.9553 20.4461 70.9342 20.5638 70.9096 20.687C70.8849 20.8093 70.8587 20.933 70.8315 21.0589C70.8038 21.1837 70.7807 21.2946 70.7617 21.3917L70.3775 23.1811H68.5141L69.0195 20.7877C69.0319 20.7086 69.0467 20.6274 69.0647 20.5453C69.0837 20.4621 69.0935 20.3866 69.0935 20.3193C69.0935 20.2279 69.0699 20.1529 69.0236 20.0954C68.9784 20.0368 68.9096 20.007 68.8182 20.007C68.7073 20.007 68.6009 20.0471 68.4998 20.1262C68.3996 20.2058 68.3221 20.2731 68.2676 20.3275L67.6616 23.1811H65.79L66.6261 19.2366H68.1197L68.2861 19.8242H68.3416Z" fill="#210C0C"/>
<path d="M58.44 26.2566C58.4174 26.6449 58.2802 26.9186 58.0142 27.1241C57.877 27.2309 57.687 27.2843 57.4508 27.2843C57.4282 27.2843 57.405 27.2843 57.3824 27.2843C57.3593 27.2843 57.329 27.2843 57.3064 27.2766C57.2376 27.3372 57.1996 27.3983 57.1996 27.4666C57.1996 27.558 57.2756 27.6115 57.3901 27.6418C57.5042 27.6798 57.6413 27.7029 57.7856 27.7255C58.0291 27.7558 58.2879 27.8169 58.5011 27.9612C58.7065 28.1061 58.8514 28.3269 58.8514 28.6921C58.8514 29.0953 58.6762 29.369 58.4328 29.5293C58.1816 29.689 57.8467 29.7573 57.5345 29.7573C57.1693 29.7496 56.8575 29.6967 56.6444 29.5745C56.4235 29.4527 56.3018 29.255 56.3018 28.9509C56.3018 28.8061 56.3778 28.6844 56.4919 28.5776C56.6064 28.4712 56.7584 28.3875 56.9027 28.3192C56.6516 28.2504 56.439 28.0907 56.439 27.7635C56.439 27.6418 56.5073 27.52 56.5987 27.406C56.6901 27.2915 56.8041 27.2006 56.9181 27.1395C56.6973 26.9951 56.591 26.7666 56.5376 26.5766C56.5073 26.462 56.4847 26.348 56.477 26.234V25.0999C56.5073 24.7122 56.629 24.4302 56.8955 24.2099C57.025 24.0953 57.215 24.0424 57.4508 24.0424C57.839 24.0424 58.0748 24.217 58.2196 24.4225C58.2725 24.3696 58.3639 24.2782 58.4857 24.1945C58.6002 24.1107 58.7291 24.0424 58.8514 24.0424V24.7271C58.6454 24.7271 58.4934 24.7651 58.4019 24.8185C58.4097 24.8565 58.4174 24.8945 58.4251 24.9176C58.4251 24.9479 58.4251 24.9782 58.4328 25.0013C58.44 25.0239 58.44 25.0542 58.44 25.0773V26.2566ZM57.687 25.1302C57.687 24.9859 57.6562 24.8945 57.5956 24.8108C57.5648 24.7728 57.5196 24.7502 57.4508 24.7502C57.329 24.7502 57.2684 24.8488 57.2453 24.9402C57.2304 24.9936 57.2227 25.0619 57.2304 25.1302V26.272C57.2227 26.4168 57.2453 26.5077 57.3141 26.5837C57.3444 26.6223 57.3901 26.6449 57.4508 26.6449C57.5802 26.6449 57.6336 26.5534 57.6639 26.462C57.6793 26.4091 57.687 26.3403 57.687 26.272V25.1302ZM57.329 28.4558C57.1693 28.5473 57.0476 28.6613 57.0476 28.8215C57.0476 28.9812 57.1919 29.1107 57.5499 29.1107C57.6793 29.1107 57.8236 29.0876 57.9382 29.0419C58.0522 28.9961 58.1359 28.9278 58.1359 28.8287C58.1359 28.7604 58.1282 28.707 58.0748 28.6541C58.0142 28.6007 57.9151 28.5627 57.725 28.5324L57.329 28.4558Z" fill="#210C0C"/>
<path d="M61.2712 24.8945C61.2023 24.8719 61.1263 24.8642 61.058 24.8642C60.9363 24.8642 60.7915 24.8791 60.6697 24.9936C60.5254 25.1153 60.5023 25.2448 60.5023 25.3742V28.2658H59.7339V24.103H60.5023V24.5673C60.51 24.5139 60.5634 24.3845 60.6851 24.2628C60.8069 24.1487 60.9892 24.0424 61.2712 24.0424V24.8945Z" fill="#210C0C"/>
<path d="M64.079 27.2535C64.0559 27.6572 63.9342 27.9386 63.6681 28.1595C63.531 28.2735 63.341 28.3269 63.0898 28.3269C62.5952 28.3269 62.3512 28.0527 62.2295 27.7789C62.1612 27.6192 62.1155 27.4363 62.1078 27.2309V25.1379C62.1309 24.7348 62.2526 24.4379 62.5187 24.2099C62.6481 24.0953 62.8386 24.0424 63.0898 24.0424C63.5844 24.0424 63.8356 24.3162 63.9573 24.5827C64.0256 24.7425 64.0713 24.9176 64.079 25.1153V27.2535ZM63.3558 25.1379C63.3636 24.9782 63.3332 24.8642 63.2572 24.7728C63.2192 24.7348 63.1581 24.7122 63.0898 24.7122C62.945 24.7122 62.8844 24.8108 62.8535 24.9248C62.8309 24.9859 62.8232 25.0542 62.8309 25.1379V27.2309C62.8232 27.3906 62.8612 27.5046 62.9301 27.5884C62.9681 27.6264 63.021 27.6495 63.0898 27.6495C63.2341 27.6495 63.3029 27.5581 63.3332 27.444C63.3558 27.3829 63.3636 27.3146 63.3558 27.2309V25.1379Z" fill="#210C0C"/>
<path d="M66.3769 24.103H67.1458V28.2658H66.3769V27.9155C66.3615 27.9232 66.3312 27.954 66.2932 27.9921C66.2018 28.083 66.0955 28.1898 65.9583 28.2658C65.89 28.3038 65.8212 28.3269 65.7529 28.3269C65.5474 28.3269 65.4031 28.2047 65.3117 28.045C65.2203 27.8929 65.1746 27.6875 65.1746 27.5123V24.103H65.9434V27.3983C65.9434 27.5581 66.0343 27.5807 66.1258 27.5807C66.2095 27.5807 66.2552 27.5355 66.3086 27.482C66.3312 27.4589 66.3543 27.4209 66.3769 27.3829V24.103Z" fill="#210C0C"/>
<path d="M68.3252 24.103H69.0935V24.3773C69.223 24.2556 69.337 24.1641 69.4895 24.0953C69.5578 24.0573 69.6339 24.0424 69.7027 24.0424C69.9153 24.0424 70.0602 24.1641 70.1593 24.3162C70.2502 24.4759 70.2959 24.6813 70.2959 24.8565V27.5123C70.2959 27.6875 70.2502 27.8929 70.1593 28.0449C70.0602 28.2047 69.9153 28.3269 69.7027 28.3269C69.5578 28.3269 69.4058 28.2432 69.2913 28.1595C69.223 28.1061 69.1624 28.0527 69.0935 27.992V29.6967H68.3252V24.103ZM69.0935 27.3526C69.0935 27.4743 69.2076 27.6038 69.3221 27.6038C69.4361 27.6038 69.5275 27.4969 69.5275 27.3526V25.0162C69.5275 24.8719 69.4361 24.7651 69.3221 24.7651C69.2076 24.7651 69.0935 24.8719 69.0935 25.0162V27.3526Z" fill="#210C0C"/>
<mask id="mask0_1_80" style="mask-type:luminance" maskUnits="userSpaceOnUse" x="0" y="0" width="49" height="24">
<path d="M0 0H48.3857V23.4697H0V0Z" fill="white"/>
</mask>
<g mask="url(#mask0_1_80)">
<path d="M48.25 15.2813C48.0225 14.2258 46.2331 14.1298 46.2331 14.1298C45.2413 14.3404 44.5459 14.0055 43.6846 14.1313C37.658 15.0122 34.5707 14.5104 34.5707 14.5104C35.3 12.7364 36.8465 8.89513 37.9363 8.77443C39.15 8.64038 40.3775 11.4072 41.1921 11.4272C41.434 11.4334 41.7873 10.9018 41.7873 10.9018C42.5875 10.7071 42.716 10.1324 42.716 10.1324C41.8546 10.6804 40.4042 8.60494 40.9168 8.03124C41.4335 7.45292 42.9948 8.08106 43.682 8.75132C44.4329 9.48475 43.8346 10.3281 43.8346 10.3281C43.8346 10.3281 44.5382 10.1 44.7652 9.49194C44.796 9.40924 44.833 9.33272 44.8715 9.26441C44.982 9.07027 45.151 8.91875 45.3482 8.81346C45.5865 8.68712 45.738 8.42569 45.4144 8.0107C44.983 7.45909 44.2434 6.37487 43.9096 5.58905C43.5552 5.61884 42.9615 5.58135 42.7278 5.04822C42.6404 4.851 42.4715 4.22543 42.4715 4.22543L43.794 5.27472C43.7745 5.20898 43.7611 5.14735 43.7498 5.09034C43.4771 3.7488 42.0149 2.94553 42.0149 2.94553C40.7997 2.05288 39.5979 0.842826 38.8521 0C38.8521 0 37.1593 2.84332 39.6728 4.25316C38.3965 3.59678 37.9415 2.8541 37.8783 2.17563C30.8224 0.782221 26.3499 5.48376 25.0202 6.45396C23.39 7.64347 21.257 8.66709 19.1071 9.5207C18.5693 9.73282 18.0372 9.94596 17.5154 10.1422C17.255 10.2423 16.9972 10.3404 16.7435 10.4375C16.4902 10.5351 16.2396 10.6239 15.9941 10.7148C15.7491 10.8047 15.5082 10.8931 15.2735 10.9793C15.0388 11.0672 14.8087 11.1427 14.5858 11.2218C14.3629 11.2993 14.1467 11.3748 13.9381 11.4477C13.8334 11.4837 13.7312 11.5196 13.6305 11.5546C13.5298 11.5874 13.4312 11.6198 13.3347 11.6511C12.9479 11.778 12.5956 11.893 12.2838 11.9947C11.9721 12.0933 11.7014 12.1719 11.4785 12.2402C11.0337 12.3748 10.782 12.4508 10.782 12.4508C10.782 12.4508 11.1066 12.3815 11.6613 12.2639C11.8 12.2341 11.9536 12.2017 12.1195 12.1663C12.2854 12.1324 12.4641 12.0862 12.6546 12.042C12.8447 11.9968 13.0465 11.949 13.2581 11.8982C13.4697 11.8473 13.6921 11.798 13.9217 11.7364C14.3809 11.6162 14.875 11.4924 15.3896 11.3532C15.6469 11.2818 15.9094 11.2089 16.1759 11.135C16.4425 11.06 16.7137 10.9881 16.9859 10.9069C17.2591 10.8263 17.5339 10.7462 17.8097 10.665C18.086 10.5844 18.3634 10.5032 18.6392 10.4175C18.915 10.3327 19.1908 10.248 19.464 10.1642C19.6012 10.1221 19.7373 10.08 19.8729 10.0384C20.0084 9.99578 20.143 9.95264 20.2765 9.91001C17.5452 11.0343 14.2448 12.2983 11.5858 13.1021C11.4199 13.1534 11.2566 13.2038 11.0964 13.2531C11.0162 13.2787 10.9366 13.3019 10.8575 13.3229C10.779 13.3455 10.7009 13.3671 10.6233 13.3887C10.3141 13.4755 10.0183 13.5581 9.73891 13.6367C9.5987 13.6778 9.46208 13.7091 9.33008 13.7415C9.19757 13.7744 9.06968 13.8057 8.94642 13.836C8.69938 13.8966 8.47082 13.9526 8.26332 14.0034C7.43026 14.175 6.9336 14.2777 6.9336 14.2777C6.9336 14.2777 7.2695 14.2382 7.85244 14.1699C7.92537 14.1616 8.00241 14.1524 8.08305 14.1431C8.16368 14.1324 8.24792 14.1252 8.33574 14.1098C8.5114 14.0825 8.70092 14.0527 8.90328 14.0209C9.10615 13.9891 9.32135 13.9552 9.54836 13.9197C9.77486 13.8827 10.0121 13.8324 10.2597 13.7867C12.2427 13.4164 14.8554 12.7698 17.3757 12.0204C17.1384 12.1139 16.9001 12.2012 16.6633 12.2901C16.4271 12.3784 16.1918 12.4667 15.9592 12.5535C15.8426 12.5967 15.7265 12.6403 15.6115 12.683C15.4959 12.7241 15.3809 12.7651 15.2668 12.8057C15.0383 12.8869 14.8133 12.967 14.592 13.0456C14.1508 13.2063 13.7214 13.3455 13.3162 13.4816C13.1133 13.5494 12.9166 13.6152 12.7266 13.6783C12.536 13.7405 12.3506 13.7954 12.1734 13.8509C11.819 13.9608 11.4949 14.0605 11.2088 14.1488C10.9197 14.2299 10.6691 14.2998 10.4621 14.3578C10.0486 14.4734 9.81441 14.5386 9.81441 14.5386C9.81441 14.5386 10.0615 14.4914 10.496 14.4087C10.7132 14.366 10.9782 14.3178 11.2813 14.2566C11.5838 14.1904 11.9253 14.1154 12.2987 14.0332C12.4846 13.9906 12.6808 13.9526 12.8806 13.9012C13.0815 13.8524 13.2895 13.8016 13.5031 13.7492C13.7168 13.6968 13.9366 13.6429 14.1616 13.5879C14.3865 13.532 14.6151 13.4688 14.8483 13.4077C15.3146 13.2829 15.7995 13.158 16.2889 13.0158C16.7789 12.8745 17.2812 12.7384 17.7799 12.5859C17.4106 12.7318 17.0434 12.8679 16.6864 13.0009C16.5077 13.0682 16.3321 13.1334 16.159 13.1986C15.9864 13.2628 15.8164 13.3275 15.649 13.3856C15.3141 13.5047 14.9936 13.6188 14.6921 13.7256C14.5416 13.779 14.3963 13.8329 14.2545 13.8802C14.1128 13.9274 13.9767 13.9726 13.8462 14.0163C13.5848 14.1036 13.3475 14.1827 13.1379 14.2525C13.0337 14.288 12.9361 14.3203 12.8457 14.3506C12.7553 14.3789 12.6721 14.4046 12.5971 14.4277C12.2972 14.5196 12.1292 14.572 12.1292 14.572C12.1292 14.572 12.2078 14.5545 12.3537 14.5222C12.499 14.4893 12.7137 14.4467 12.9808 14.3815C13.2479 14.3162 13.5704 14.2371 13.9366 14.1478C14.1194 14.1015 14.3151 14.0579 14.517 14.0029C14.7193 13.949 14.9315 13.893 15.1513 13.8345C15.3716 13.7759 15.6002 13.7153 15.8349 13.6526C16.0701 13.59 16.3089 13.5196 16.555 13.4503C17.046 13.3111 17.5591 13.1678 18.0768 13.0101C18.5955 12.855 19.125 12.6984 19.6484 12.5325C20.1728 12.3686 20.6967 12.2069 21.2036 12.041C21.0136 12.119 20.8225 12.1981 20.6314 12.2767C20.4399 12.3543 20.2478 12.4313 20.0567 12.5078C19.6741 12.6609 19.2971 12.8165 18.9263 12.9608C18.5555 13.1051 18.1949 13.2454 17.8518 13.3794C17.7655 13.4128 17.6808 13.4457 17.5971 13.4785C17.5134 13.5099 17.4301 13.5407 17.3485 13.5715C17.1852 13.6326 17.027 13.6917 16.8749 13.7487C16.5704 13.8622 16.2899 13.967 16.0408 14.0599C15.7897 14.1498 15.5699 14.2279 15.3886 14.2921C15.0254 14.421 14.8159 14.4955 14.8159 14.4955C14.8159 14.4955 14.9941 14.4487 15.3074 14.3655C15.6197 14.2813 16.0701 14.1673 16.6048 14.0122C16.8729 13.9362 17.1636 13.854 17.4717 13.7667C17.7809 13.6804 18.1025 13.5797 18.4389 13.4806C18.7743 13.3794 19.124 13.2787 19.4758 13.1678C19.8282 13.0579 20.1872 12.9459 20.5477 12.8335C19.5159 13.2551 18.444 13.684 17.4106 14.0789C17.1513 14.177 16.8955 14.2741 16.6438 14.3691C16.518 14.4169 16.3932 14.4641 16.2694 14.5109C16.1451 14.5556 16.0218 14.6003 15.8996 14.6444C15.6556 14.7322 15.4173 14.818 15.1857 14.9012C14.9535 14.9839 14.7306 15.0681 14.5113 15.14C14.0737 15.288 13.6695 15.4246 13.3095 15.5463C13.2201 15.5776 13.1318 15.6059 13.0465 15.6321C12.9613 15.6583 12.8786 15.6845 12.7995 15.7091C12.6408 15.7589 12.4944 15.8047 12.3619 15.8457C12.0974 15.9284 11.8878 15.9942 11.7445 16.0389C11.6737 16.062 11.6172 16.0764 11.5797 16.0877C11.5417 16.0984 11.5221 16.1041 11.5221 16.1041C11.5221 16.1041 11.5396 16.1 11.5735 16.0938C11.6069 16.0866 11.6583 16.0774 11.7225 16.0625C11.8519 16.0327 12.0424 15.9896 12.2854 15.9341C12.5288 15.8781 12.8257 15.8098 13.1667 15.7317C13.5047 15.6465 13.8873 15.5499 14.3064 15.4441C14.6603 15.3578 15.0357 15.2541 15.4312 15.1457C12.9551 16.0548 10.6023 16.8524 8.78361 17.4374C8.51859 17.5227 8.26486 17.6043 8.02398 17.6819C7.7831 17.7594 7.55506 17.8329 7.34038 17.8981C6.911 18.0301 6.53864 18.1452 6.23253 18.2397C5.92591 18.3336 5.68708 18.4097 5.52324 18.4569C5.3594 18.5057 5.2726 18.5309 5.2726 18.5309C5.2726 18.5309 5.38457 18.5072 5.59258 18.4641C5.79956 18.4194 6.10207 18.3526 6.48368 18.2689C6.86478 18.1842 7.32599 18.0856 7.84833 17.9659C8.37015 17.8442 8.95464 17.7081 9.58483 17.5607C10.2135 17.4066 10.8884 17.2407 11.5925 17.0676C12.2951 16.8863 13.0275 16.6988 13.7723 16.5021C14.1436 16.401 14.5185 16.2993 14.8945 16.1965C15.271 16.0948 15.649 15.9931 16.0239 15.8843C16.7743 15.6686 17.5247 15.4605 18.2493 15.2392C16.3906 15.9628 14.3357 16.7363 12.2843 17.4502C11.7738 17.6341 11.2602 17.8046 10.7528 17.9787C10.4985 18.0661 10.2458 18.1523 9.99469 18.2376C9.74405 18.3234 9.49289 18.4035 9.24431 18.4857C8.74765 18.648 8.25973 18.8113 7.78105 18.9649C7.30186 19.1164 6.83448 19.2643 6.38148 19.4071C5.9295 19.5529 5.48883 19.6824 5.06767 19.8108C4.64652 19.9381 4.24385 20.0624 3.86173 20.1754C3.09594 20.3968 2.41799 20.5971 1.85251 20.7573C0.719494 21.0732 0.0446167 21.2612 0.0446167 21.2612C0.0446167 21.2612 0.503266 21.1739 1.29987 21.0229C1.49915 20.9849 1.71948 20.9433 1.95934 20.8976C2.19868 20.8519 2.45702 20.7979 2.73283 20.7425C3.00863 20.687 3.3019 20.6279 3.61058 20.5653C3.76466 20.5339 3.92285 20.5021 4.08515 20.4692C4.24642 20.4343 4.41129 20.3994 4.57975 20.3634C7.27823 19.7949 10.8324 18.9602 14.2699 18.0209C11.6701 18.9633 9.1041 19.8133 7.18475 20.4168C6.22637 20.7245 5.4272 20.9602 4.87045 21.1302C4.59208 21.2145 4.37431 21.2807 4.22536 21.3254C4.07642 21.3691 3.99681 21.3917 3.99681 21.3917C3.99681 21.3917 4.08052 21.3752 4.23769 21.3434C4.39434 21.31 4.62443 21.2612 4.9177 21.1985C5.50424 21.0722 6.34501 20.8965 7.35424 20.6628C9.37425 20.2063 12.0748 19.5483 14.802 18.7979C14.6757 18.8442 14.5498 18.8904 14.4245 18.9361C14.2987 18.9813 14.1734 19.0255 14.0491 19.0702C13.8 19.158 13.5535 19.2453 13.3105 19.3316C12.8241 19.5042 12.3516 19.6726 11.8961 19.8257C11.441 19.9813 11.006 20.1297 10.5966 20.2699C10.1868 20.4076 9.80054 20.5324 9.4477 20.649C9.09434 20.7651 8.77333 20.8709 8.48982 20.9638C8.2058 21.0537 7.95978 21.1318 7.75794 21.1955C7.35476 21.3228 7.12826 21.3942 7.12826 21.3942C7.12826 21.3942 7.5525 21.2982 8.27616 21.1343C8.63826 21.0537 9.07277 20.9448 9.56839 20.8277C10.064 20.7096 10.6192 20.5781 11.2155 20.425C11.5139 20.3501 11.8236 20.272 12.1421 20.1914C12.3013 20.1508 12.4626 20.1097 12.6264 20.0681C12.7892 20.0255 12.9546 19.9818 13.1215 19.9376C13.7882 19.7584 14.4867 19.5807 15.1924 19.3804C15.8991 19.1837 16.6202 18.9875 17.3351 18.7753C17.6926 18.6711 18.0501 18.5673 18.4045 18.4641C18.7594 18.3604 19.1096 18.251 19.4568 18.1467C17.3772 18.9618 15.2057 19.7692 13.5468 20.349C12.7194 20.6464 12.0183 20.8806 11.5268 21.0496C11.0353 21.2175 10.7512 21.3146 10.7512 21.3146C10.7512 21.3146 10.9926 21.254 11.4158 21.1472C11.628 21.0943 11.8853 21.0296 12.1811 20.9551C12.4769 20.8801 12.8113 20.7969 13.1754 20.6993C13.9027 20.5052 14.7568 20.2859 15.6705 20.028C15.8991 19.9638 16.1318 19.8996 16.368 19.8339C16.6038 19.7687 16.8431 19.7029 17.0835 19.632C17.5647 19.4918 18.0547 19.3496 18.5467 19.2063C17.1348 19.7517 15.6705 20.3043 14.2622 20.8103C13.5581 21.0619 12.8709 21.312 12.2094 21.5365C11.5489 21.7645 10.9202 21.9859 10.3316 22.1785C9.74405 22.3731 9.20219 22.558 8.71735 22.7137C8.23148 22.8693 7.8057 23.0059 7.45388 23.1189C7.27772 23.1754 7.11953 23.2257 6.98239 23.2699C6.84423 23.3125 6.72662 23.349 6.63109 23.3783C6.44003 23.4379 6.33731 23.4692 6.33731 23.4692C6.33731 23.4692 6.42924 23.4486 6.60181 23.4101C6.7749 23.3721 7.02913 23.3156 7.3527 23.2381C7.99985 23.0835 8.93204 22.8724 10.0548 22.5884C12.3044 22.0326 15.3316 21.2263 18.4502 20.2874C19.2319 20.0588 20.0141 19.8077 20.7968 19.5658C21.1882 19.4461 21.576 19.3167 21.9627 19.1919C22.35 19.0666 22.7341 18.9418 23.1158 18.818C23.8754 18.5617 24.6227 18.3121 25.3448 18.0635C25.7048 17.9371 26.0587 17.8129 26.4059 17.6911C26.7531 17.5679 27.0941 17.4523 27.4239 17.3301C27.5661 17.2782 27.7064 17.2268 27.8455 17.1765C27.881 17.2294 27.9169 17.2808 27.9534 17.3275C28.5045 18.0291 32.2918 18.2273 33.8676 18.1344C35.5645 18.0342 44.0755 16.0322 44.0755 16.0322C44.0755 16.0322 45.2989 16.1775 45.8181 16.2191C45.9347 16.2289 46.0472 16.1775 46.1181 16.0841L46.265 15.8884C46.265 15.8884 46.8191 16.0219 46.5854 16.7723C46.5854 16.7723 47.3898 16.157 47.248 15.6054C47.2829 15.6218 47.3189 15.6398 47.3564 15.6614C48.058 16.0764 47.3923 16.724 47.3923 16.724C47.3923 16.724 48.4699 16.3029 48.25 15.2813Z" fill="#210C0C"/>
</g>
<path d="M38.8886 19.6351C38.0278 19.3131 37.6591 18.7178 36.9395 18.3937C36.7644 18.3151 36.5836 18.2299 36.3992 18.141C35.3555 18.2571 34.3001 18.3737 33.4398 18.4656C33.1147 18.5 32.8445 18.5288 32.6185 18.5519C34.6344 19.3598 36.3124 20.0383 36.3124 20.0383C36.3124 20.0383 37.1773 20.745 37.5532 21.0306C37.638 21.0948 37.7489 21.1107 37.8481 21.0737L38.0566 20.9956C38.0566 20.9956 38.4151 21.3675 37.8701 21.8272C37.8701 21.8272 38.7854 21.7491 38.9456 21.2581C38.9651 21.2874 38.9831 21.3192 39.0011 21.3541C39.336 22.0131 38.5106 22.1836 38.5106 22.1836C38.5106 22.1836 39.5404 22.3875 39.8696 21.4985C40.2101 20.5812 38.8886 19.6351 38.8886 19.6351Z" fill="#210C0C"/>
</svg>
