<svg width="206" height="98" viewBox="0 0 206 98" fill="none" xmlns="http://www.w3.org/2000/svg">
<mask id="path-1-outside-1_1_1505" maskUnits="userSpaceOnUse" x="0" y="0" width="206" height="98" fill="black">
<rect fill="white" width="206" height="98"/>
<path fill-rule="evenodd" clip-rule="evenodd" d="M19.5515 1H195.449C200.724 1 205 8.02367 205 16.6878V79.3122C205 87.9763 200.724 95 195.449 95H19.5515C17.2707 95 15.1767 93.6871 13.5343 91.4962C10.9644 94.3223 7.47225 96.5427 3 96.0031C7.56371 91.485 10.1311 83.6965 9.60761 75.9585L10 76.2069V16.6878C10 8.02367 14.2763 1 19.5515 1Z"/>
</mask>
<path fill-rule="evenodd" clip-rule="evenodd" d="M19.5515 1H195.449C200.724 1 205 8.02367 205 16.6878V79.3122C205 87.9763 200.724 95 195.449 95H19.5515C17.2707 95 15.1767 93.6871 13.5343 91.4962C10.9644 94.3223 7.47225 96.5427 3 96.0031C7.56371 91.485 10.1311 83.6965 9.60761 75.9585L10 76.2069V16.6878C10 8.02367 14.2763 1 19.5515 1Z" fill="white"/>
<path d="M13.5343 91.4962L14.3344 90.8964L13.6086 89.9282L12.7945 90.8235L13.5343 91.4962ZM3 96.0031L2.29645 95.2925L0.826139 96.7481L2.88022 96.9959L3 96.0031ZM9.60761 75.9585L10.1424 75.1135L8.47683 74.0593L8.60989 76.026L9.60761 75.9585ZM10 76.2069L9.46519 77.0518L11 78.0233V76.2069H10ZM195.449 0H19.5515V2H195.449V0ZM206 16.6878C206 12.2031 204.895 8.09478 203.057 5.07481C201.229 2.07254 198.568 0 195.449 0V2C197.604 2 199.719 3.4393 201.348 6.11489C202.967 8.77279 204 12.5084 204 16.6878H206ZM206 79.3122V16.6878H204V79.3122H206ZM195.449 96C198.568 96 201.229 93.9275 203.057 90.9252C204.895 87.9052 206 83.7969 206 79.3122H204C204 83.4916 202.967 87.2272 201.348 89.8851C199.719 92.5607 197.604 94 195.449 94V96ZM19.5515 96H195.449V94H19.5515V96ZM12.7342 92.0961C14.4964 94.4466 16.8562 96 19.5515 96V94C17.6852 94 15.8571 92.9275 14.3344 90.8964L12.7342 92.0961ZM12.7945 90.8235C10.3427 93.5195 7.14736 95.4962 3.11978 95.0103L2.88022 96.9959C7.79714 97.5891 11.586 95.125 14.2741 92.169L12.7945 90.8235ZM3.70355 96.7138C8.51636 91.949 11.144 83.853 10.6053 75.891L8.60989 76.026C9.11826 83.5401 6.61106 91.0209 2.29645 95.2925L3.70355 96.7138ZM9.07279 76.8035L9.46519 77.0518L10.5348 75.3619L10.1424 75.1135L9.07279 76.8035ZM9 16.6878V76.2069H11V16.6878H9ZM19.5515 0C16.4319 0 13.7713 2.07254 11.9434 5.07481C10.1047 8.09478 9 12.2031 9 16.6878H11C11 12.5084 12.0335 8.77279 13.6517 6.11489C15.2807 3.4393 17.3959 2 19.5515 2V0Z" fill="#EEEEEE" mask="url(#path-1-outside-1_1_1505)"/>
</svg>
